Coordinates
version=1
nRows=32
nColumns=34
inDegrees=no

Units are S.I. units (second, meters, Newtons, ...)
If the header above contains a line with 'inDegrees', this indicates whether rotational values are in degrees (yes) or radians (no).

endheader
time	pelvis_tilt	pelvis_list	pelvis_rotation	pelvis_tx	pelvis_ty	pelvis_tz	hip_flexion_r	hip_adduction_r	hip_rotation_r	knee_angle_r	ankle_angle_r	subtalar_angle_r	mtp_angle_r	hip_flexion_l	hip_adduction_l	hip_rotation_l	knee_angle_l	ankle_angle_l	subtalar_angle_l	mtp_angle_l	lumbar_extension	lumbar_bending	lumbar_rotation	arm_flex_r	arm_add_r	arm_rot_r	elbow_flex_r	pro_sup_r	arm_flex_l	arm_add_l	arm_rot_l	elbow_flex_l	pro_sup_l
1.91	-0.306218	0.072664	-0.0469054	-0.353763	0.613998	-0.570406	1.60113	-0.105159	0.133439	1.885	0.699199	-0.110034	-0.122776	1.56337	-0.146372	-0.00442939	1.85136	0.618859	-0.237678	-0.119901	-0.437681	-0.00739243	-0.022247	1.48659	-0.108158	0.406849	1.85587	1.92413	1.45515	-0.151403	0.448518	1.89344	1.5133
1.92	-0.313961	0.0781424	-0.0467475	-0.351846	0.616992	-0.570259	1.59705	-0.105742	0.138224	1.87312	0.699009	-0.109454	-0.12277	1.55592	-0.141804	-0.0106875	1.83672	0.615971	-0.245439	-0.1199	-0.417295	-0.0107663	-0.0196271	1.59255	-0.0918834	0.411197	1.8508	1.92288	1.56168	-0.154224	0.458977	1.89874	1.49138
1.93	-0.322328	0.0844837	-0.0472572	-0.349465	0.620568	-0.570053	1.59228	-0.106466	0.143232	1.85965	0.698516	-0.108283	-0.122764	1.54703	-0.137432	-0.0178832	1.82023	0.612933	-0.253738	-0.119898	-0.394844	-0.0154644	-0.0155828	1.69524	-0.0771397	0.412073	1.84154	1.91893	1.66544	-0.157996	0.46613	1.89951	1.46451
1.94	-0.330793	0.0913174	-0.0488267	-0.346603	0.624814	-0.569766	1.58621	-0.106814	0.148188	1.84447	0.697407	-0.106849	-0.122758	1.53629	-0.133734	-0.0257134	1.80201	0.609818	-0.262317	-0.119897	-0.371035	-0.0211792	-0.00957466	1.79469	-0.0644027	0.410913	1.8276	1.91231	1.76628	-0.162817	0.471605	1.89523	1.4357
1.95	-0.338878	0.0982865	-0.0517455	-0.343257	0.629806	-0.569381	1.57823	-0.10639	0.152841	1.82739	0.695416	-0.105437	-0.122752	1.52333	-0.131068	-0.0339149	1.7821	0.606677	-0.270899	-0.119895	-0.346502	-0.027536	-0.00130317	1.891	-0.0539215	0.409229	1.80855	1.90305	1.86409	-0.168734	0.476952	1.88558	1.40813
1.96	-0.346244	0.105134	-0.0561494	-0.339439	0.635605	-0.568892	1.56787	-0.104982	0.157039	1.8082	0.692356	-0.104247	-0.122746	1.50785	-0.129611	-0.0423364	1.76045	0.603517	-0.279201	-0.119894	-0.321698	-0.0341961	0.00930528	1.98416	-0.0457878	0.408532	1.78417	1.89092	1.95875	-0.175676	0.483599	1.87048	1.38411
1.97	-0.35274	0.111714	-0.062007	-0.33517	0.642252	-0.568303	1.55483	-0.102583	0.160729	1.78667	0.688128	-0.103374	-0.12274	1.48966	-0.129343	-0.0509342	1.73692	0.600294	-0.286967	-0.119892	-0.296816	-0.0408642	0.0221482	2.07409	-0.0399813	0.410282	1.75454	1.87536	2.05006	-0.183418	0.492756	1.85002	1.36466
1.98	-0.35838	0.117976	-0.0691332	-0.330483	0.649758	-0.567635	1.539	-0.0993779	0.163931	1.7626	0.6827	-0.102809	-0.122735	1.46875	-0.130059	-0.0597329	1.71128	0.596903	-0.293999	-0.119891	-0.27182	-0.047311	0.0369425	2.16057	-0.0363976	0.41574	1.71999	1.85559	2.13776	-0.191581	0.505369	1.82434	1.34955
1.99	-0.363291	0.123933	-0.0772231	-0.325408	0.658102	-0.566915	1.52042	-0.0957	0.166715	1.73582	0.676063	-0.102475	-0.122729	1.44519	-0.131399	-0.0687785	1.6833	0.593176	-0.300173	-0.119889	-0.246515	-0.0533713	0.0532406	2.24325	-0.0348503	0.425817	1.68108	1.83114	2.2216	-0.199654	0.522042	1.79356	1.3378
2	-0.367642	0.129638	-0.0858973	-0.319966	0.667271	-0.566173	1.49925	-0.0919777	0.169173	1.70624	0.66818	-0.10228	-0.122723	1.41913	-0.132903	-0.0781071	1.6527	0.588889	-0.305449	-0.119888	-0.22064	-0.0589439	0.0704577	2.3217	-0.0350683	0.440939	1.63848	1.80209	2.30129	-0.20706	0.542964	1.75771	1.32806
2.01	-0.371561	0.135169	-0.0947551	-0.314177	0.677264	-0.565434	1.47568	-0.0886698	0.171408	1.67383	0.658937	-0.102183	-0.122717	1.39071	-0.13407	-0.0877337	1.61923	0.583752	-0.309873	-0.119886	-0.193985	-0.0639984	0.0879074	2.3954	-0.0366969	0.46096	1.59289	1.76919	2.37652	-0.213218	0.567872	1.71684	1.319
2.02	-0.375064	0.140611	-0.103429	-0.308063	0.688092	-0.564708	1.44985	-0.0862021	0.173524	1.63864	0.64811	-0.102259	-0.122711	1.35997	-0.134427	-0.0976488	1.58263	0.577399	-0.313581	-0.119885	-0.166512	-0.06858	0.104849	2.4638	-0.0393136	0.485139	1.54499	1.73347	2.44696	-0.217624	0.596055	1.67108	1.30965
2.03	-0.377991	0.146035	-0.111624	-0.30166	0.699782	-0.563993	1.42174	-0.0849154	0.175616	1.60074	0.635341	-0.102734	-0.122705	1.32676	-0.133581	-0.107813	1.54267	0.569361	-0.316814	-0.119883	-0.138452	-0.0728005	0.120541	2.52638	-0.0424556	0.512168	1.49542	1.69637	2.51231	-0.2199	0.626403	1.62075	1.29959
2.04	-0.379978	0.151471	-0.119143	-0.295013	0.712371	-0.563278	1.39118	-0.0850377	0.177744	1.56024	0.620147	-0.103979	-0.122699	1.29079	-0.131256	-0.118142	1.49915	0.559031	-0.319932	-0.119882	-0.110361	-0.0768078	0.134308	2.58273	-0.0456703	0.540293	1.44463	1.65976	2.57224	-0.219824	0.657496	1.56637	1.28905
2.05	-0.380476	0.156876	-0.125888	-0.288172	0.725903	-0.562545	1.35777	-0.0866792	0.179904	1.51721	0.60192	-0.10643	-0.122693	1.25159	-0.12731	-0.128492	1.45189	0.545644	-0.323395	-0.119881	-0.0830976	-0.080736	0.145604	2.63253	-0.0485818	0.567547	1.393	1.62568	2.62653	-0.217317	0.687742	1.50874	1.27883
2.06	-0.378843	0.162098	-0.131834	-0.281184	0.740429	-0.561764	1.32102	-0.0898451	0.181982	1.47167	0.579943	-0.110452	-0.122687	1.20863	-0.121745	-0.138646	1.40077	0.528271	-0.32769	-0.119879	-0.0576881	-0.0846423	0.154065	2.67565	-0.05095	0.592087	1.34085	1.59566	2.67497	-0.212437	0.715565	1.44885	1.26991
2.07	-0.374472	0.166864	-0.137007	-0.274104	0.756001	-0.560913	1.28039	-0.0944594	0.183712	1.42353	0.5534	-0.116159	-0.122681	1.16149	-0.114705	-0.148314	1.34571	0.50583	-0.333201	-0.119878	-0.0351434	-0.0884472	0.159533	2.71213	-0.0526971	0.612528	1.28856	1.57049	2.71749	-0.205392	0.739637	1.38791	1.26318
2.08	-0.366938	0.17078	-0.141454	-0.266992	0.772661	-0.559983	1.23542	-0.100391	0.184655	1.37251	0.521383	-0.123248	-0.122675	1.10991	-0.106457	-0.157153	1.28661	0.477127	-0.340062	-0.119876	-0.0162921	-0.0918915	0.162065	2.74223	-0.0538989	0.62822	1.23659	1.5502	2.75408	-0.196556	0.75909	1.32731	1.25916
2.09	-0.356128	0.173413	-0.145214	-0.259915	0.790427	-0.55898	1.18586	-0.107483	0.184217	1.31815	0.482915	-0.130875	-0.122669	1.05391	-0.0973587	-0.164842	1.22334	0.440907	-0.34801	-0.119875	-0.00162052	-0.0945576	0.16192	2.76636	-0.0547588	0.639374	1.18548	1.53429	2.78488	-0.186467	0.773643	1.26856	1.25793
2.1	-0.342313	0.17444	-0.148297	-0.252938	0.80928	-0.557925	1.13175	-0.115587	0.181752	1.25978	0.436986	-0.137611	-0.122663	0.993847	-0.0877998	-0.171239	1.15561	0.395918	-0.356257	-0.119873	0.00889614	-0.0960409	0.159515	2.78501	-0.0555825	0.646957	1.13593	1.52211	2.81008	-0.175777	0.783641	1.21321	1.25919
2.11	-0.326096	0.173736	-0.150699	-0.246134	0.829173	-0.556851	1.07342	-0.124586	0.176631	1.19656	0.382607	-0.141519	-0.122657	0.930329	-0.0781456	-0.176499	1.08303	0.341017	-0.363441	-0.119872	0.0157754	-0.0960579	0.1554	2.79866	-0.0567263	0.652453	1.08877	1.51317	2.82988	-0.165195	0.789933	1.1627	1.26242
2.12	-0.308299	0.171401	-0.152425	-0.239585	0.850019	-0.555804	1.01148	-0.134402	0.168291	1.12757	0.318893	-0.140363	-0.122651	0.86413	-0.0686881	-0.181143	1.00508	0.275295	-0.367673	-0.11987	0.0198729	-0.0945402	0.15022	2.80776	-0.0585427	0.657546	1.04487	1.50707	2.84452	-0.155422	0.793666	1.11826	1.2672
2.13	-0.289837	0.16776	-0.153528	-0.233361	0.871686	-0.554824	0.94667	-0.144983	0.156243	1.05192	0.2452	-0.131905	-0.122644	0.79611	-0.0596132	-0.186054	0.921263	0.198258	-0.366685	-0.119869	0.0221861	-0.0916726	0.144663	2.81269	-0.0613354	0.663785	1.00515	1.50343	2.85424	-0.147078	0.796082	1.08075	1.27345
2.14	-0.271635	0.163304	-0.154103	-0.227515	0.894008	-0.553932	0.879864	-0.156256	0.140041	0.96897	0.161328	-0.114246	-0.122638	0.727217	-0.0510127	-0.192358	0.831327	0.110079	-0.35806	-0.119867	0.0237315	-0.087822	0.139397	2.81375	-0.0653248	0.672316	0.970443	1.50183	2.8593	-0.140655	0.798345	1.05059	1.28138
2.15	-0.254491	0.158587	-0.15429	-0.222095	0.916794	-0.553123	0.812074	-0.168075	0.11926	0.878549	0.0677644	-0.0862183	-0.122632	0.658526	-0.0429132	-0.201225	0.735526	0.0118684	-0.339552	-0.119866	0.0254388	-0.0834488	0.13501	2.81119	-0.0706311	0.683725	0.941403	1.50186	2.85999	-0.136459	0.801418	1.02775	1.29133
2.16	-0.239038	0.154106	-0.154266	-0.217157	0.939836	-0.552374	0.744456	-0.180178	0.0935085	0.781255	-0.0340598	-0.047774	-0.122626	0.591274	-0.0353168	-0.213629	0.634904	-0.0940827	-0.309457	-0.119864	0.0280358	-0.079021	0.131948	2.80532	-0.077262	0.698003	0.918366	1.50309	2.8567	-0.134598	0.805982	1.01176	1.30348
2.17	-0.225727	0.15021	-0.154218	-0.212766	0.962914	-0.551652	0.678335	-0.192168	0.0624886	0.678695	-0.141591	-0.00030689	-0.12262	0.526889	-0.0282581	-0.230108	0.531507	-0.204176	-0.267008	-0.119863	0.0319846	-0.0749161	0.130474	2.7965	-0.0851005	0.714622	0.901273	1.50515	2.84991	-0.13498	0.812384	1.0018	1.31766
2.18	-0.214833	0.147057	-0.154316	-0.208987	0.985795	-0.550926	0.615225	-0.203526	0.0261111	0.573628	-0.251121	0.0532317	-0.122614	0.466975	-0.0218636	-0.250618	0.428456	-0.31361	-0.212715	-0.119861	0.0374673	-0.0713475	0.130654	2.78523	-0.0939018	0.732697	0.889645	1.50767	2.8402	-0.137355	0.820585	0.996893	1.33336
2.19	-0.206442	0.144614	-0.154673	-0.205827	1.00818	-0.550171	0.556773	-0.213673	-0.0153604	0.469921	-0.358	0.108518	-0.122608	0.413222	-0.0163939	-0.274513	0.329802	-0.41682	-0.148586	-0.11986	0.044407	-0.0683305	0.132372	2.77215	-0.103317	0.751175	0.882675	1.51035	2.82812	-0.141356	0.830129	0.995994	1.34996
2.2	-0.20039	0.1427	-0.155299	-0.20327	1.02974	-0.549388	0.50464	-0.222082	-0.0611674	0.372249	-0.457156	0.160409	-0.122602	0.367229	-0.0122421	-0.300681	0.240114	-0.508291	-0.0781486	-0.119859	0.0525427	-0.0657057	0.135371	2.75792	-0.112944	0.76901	0.87939	1.5129	2.81417	-0.14654	0.840173	0.998177	1.36658
2.21	-0.196444	0.141016	-0.156116	-0.201317	1.05016	-0.548571	0.460244	-0.228437	-0.109973	0.285542	-0.543905	0.203818	-0.122596	0.330238	-0.00984676	-0.327799	0.163818	-0.583634	-0.00620947	-0.119857	0.0614006	-0.0632465	0.139284	2.74318	-0.122391	0.78528	0.878861	1.51514	2.79868	-0.152442	0.849586	1.00273	1.38227
2.22	-0.194209	0.139278	-0.156931	-0.199988	1.06927	-0.547716	0.424522	-0.232749	-0.159883	0.214196	-0.614869	0.234768	-0.12259	0.30287	-0.00956216	-0.354573	0.104355	-0.640575	0.0617251	-0.119856	0.070406	-0.0607356	0.143679	2.72844	-0.131336	0.799234	0.880367	1.51713	2.78178	-0.158607	0.857119	1.00917	1.39633
